<svg preserveAspectRatio="none" overflow="visible" style="display: block;" width="60" height="60" viewBox="0 0 60 60" fill="none" xmlns="http://www.w3.org/2000/svg">
<g id="Frame 2147237313">
<rect width="60" height="60" rx="19.7727" fill="#30D158"/>
<path id="Vector" d="M48.8518 24.2869C48.8555 22.8878 48.5817 21.5018 48.0463 20.2092C47.5108 18.9166 46.7243 17.7431 45.7322 16.7564V16.7564C41.5796 12.6038 34.823 12.6038 30.6704 16.7564L29.9997 17.4271L29.329 16.7564C28.3425 15.7643 27.1691 14.9777 25.8766 14.4422C24.584 13.9066 23.1981 13.6327 21.7991 13.6364C20.3998 13.6325 19.0137 13.9062 17.721 14.4417C16.4283 14.9772 15.2547 15.7638 14.2681 16.756C13.276 17.7426 12.4895 18.9163 11.954 20.209C11.4186 21.5016 11.1448 22.8877 11.1485 24.2869C11.1448 25.686 11.4186 27.072 11.954 28.3646C12.4895 29.6572 13.276 30.8308 14.2681 31.8174L14.9487 32.4984L14.9454 32.5022L27.9778 45.5275C28.2433 45.7933 28.5587 46.0039 28.9058 46.1474C29.253 46.2909 29.625 46.3644 30.0006 46.3636C30.3763 46.3643 30.7484 46.2909 31.0955 46.1474C31.4426 46.0039 31.758 45.7933 32.0235 45.5275L43.4219 34.1352L45.0715 32.4791L45.7313 31.8192C46.7237 30.8325 47.5105 29.6586 48.0461 28.3657C48.5818 27.0727 48.8556 25.6864 48.8518 24.2869V24.2869Z" fill="white"/>
</g>
</svg>
