<svg xmlns="http://www.w3.org/2000/svg" width="98.0" height="103.0" viewBox="0 0 98.0 103.0" fill="none">
<path fill="#FF6D39" d="M61.69 1.64C62.7 1.64 63.52 2.46 63.52 3.47C63.52 4.48 62.7 5.3 61.69 5.3C60.68 5.3 59.86 4.48 59.86 3.47C59.86 2.46 60.68 1.64 61.69 1.64ZM80.21 1.64C81.22 1.64 82.04 2.46 82.04 3.47C82.04 4.48 81.22 5.3 80.21 5.3C79.2 5.3 78.38 4.48 78.38 3.47C78.38 2.46 79.2 1.64 80.21 1.64ZM54.28 5.34C55.29 5.34 56.11 6.16 56.11 7.17C56.11 8.18 55.29 9 54.28 9C53.27 9 52.45 8.18 52.45 7.17C52.45 6.16 53.27 5.34 54.28 5.34ZM76.51 5.34C77.52 5.34 78.34 6.16 78.34 7.17C78.34 8.18 77.52 9 76.51 9C75.5 9 74.68 8.18 74.68 7.17C74.68 6.16 75.5 5.34 76.51 5.34ZM54.28 9.05C55.29 9.05 56.11 9.87 56.11 10.88C56.11 11.89 55.29 12.71 54.28 12.71C53.27 12.71 52.45 11.89 52.45 10.88C52.45 9.87 53.27 9.05 54.28 9.05ZM57.98 9.05C58.99 9.05 59.81 9.87 59.81 10.88C59.81 11.89 58.99 12.71 57.98 12.71C56.97 12.71 56.15 11.89 56.15 10.88C56.15 9.87 56.97 9.05 57.98 9.05ZM61.69 9.05C62.7 9.05 63.52 9.87 63.52 10.88C63.52 11.89 62.7 12.71 61.69 12.71C60.68 12.71 59.86 11.89 59.86 10.88C59.86 9.87 60.68 9.05 61.69 9.05ZM69.1 9.05C70.11 9.05 70.93 9.87 70.93 10.88C70.93 11.89 70.11 12.71 69.1 12.71C68.09 12.71 67.27 11.89 67.27 10.88C67.27 9.87 68.09 9.05 69.1 9.05ZM72.8 9.05C73.81 9.05 74.63 9.87 74.63 10.88C74.63 11.89 73.81 12.71 72.8 12.71C71.79 12.71 70.97 11.89 70.97 10.88C70.97 9.87 71.79 9.05 72.8 9.05ZM61.69 12.75C62.7 12.75 63.52 13.57 63.52 14.58C63.52 15.59 62.7 16.41 61.69 16.41C60.68 16.41 59.86 15.59 59.86 14.58C59.86 13.57 60.68 12.75 61.69 12.75ZM65.39 12.75C66.4 12.75 67.22 13.57 67.22 14.58C67.22 15.59 66.4 16.41 65.39 16.41C64.38 16.41 63.56 15.59 63.56 14.58C63.56 13.57 64.38 12.75 65.39 12.75ZM69.1 12.75C70.11 12.75 70.93 13.57 70.93 14.58C70.93 15.59 70.11 16.41 69.1 16.41C68.09 16.41 67.27 15.59 67.27 14.58C67.27 13.57 68.09 12.75 69.1 12.75ZM72.8 12.75C73.81 12.75 74.63 13.57 74.63 14.58C74.63 15.59 73.81 16.41 72.8 16.41C71.79 16.41 70.97 15.59 70.97 14.58C70.97 13.57 71.79 12.75 72.8 12.75ZM57.98 16.46C58.99 16.46 59.81 17.28 59.81 18.29C59.81 19.3 58.99 20.12 57.98 20.12C56.97 20.12 56.15 19.3 56.15 18.29C56.15 17.28 56.97 16.46 57.98 16.46ZM61.69 16.46C62.7 16.46 63.52 17.28 63.52 18.29C63.52 19.3 62.7 20.12 61.69 20.12C60.68 20.12 59.86 19.3 59.86 18.29C59.86 17.28 60.68 16.46 61.69 16.46ZM65.39 16.46C66.4 16.46 67.22 17.28 67.22 18.29C67.22 19.3 66.4 20.12 65.39 20.12C64.38 20.12 63.56 19.3 63.56 18.29C63.56 17.28 64.38 16.46 65.39 16.46ZM69.1 16.46C70.11 16.46 70.93 17.28 70.93 18.29C70.93 19.3 70.11 20.12 69.1 20.12C68.09 20.12 67.27 19.3 67.27 18.29C67.27 17.28 68.09 16.46 69.1 16.46ZM61.69 20.16C62.7 20.16 63.52 20.98 63.52 21.99C63.52 23 62.7 23.82 61.69 23.82C60.68 23.82 59.86 23 59.86 21.99C59.86 20.98 60.68 20.16 61.69 20.16ZM65.39 20.16C66.4 20.16 67.22 20.98 67.22 21.99C67.22 23 66.4 23.82 65.39 23.82C64.38 23.82 63.56 23 63.56 21.99C63.56 20.98 64.38 20.16 65.39 20.16ZM72.8 20.16C73.81 20.16 74.63 20.98 74.63 21.99C74.63 23 73.81 23.82 72.8 23.82C71.79 23.82 70.97 23 70.97 21.99C70.97 20.98 71.79 20.16 72.8 20.16ZM61.69 23.87C62.7 23.87 63.52 24.69 63.52 25.7C63.52 26.71 62.7 27.53 61.69 27.53C60.68 27.53 59.86 26.71 59.86 25.7C59.86 24.69 60.68 23.87 61.69 23.87ZM65.39 23.87C66.4 23.87 67.22 24.69 67.22 25.7C67.22 26.71 66.4 27.53 65.39 27.53C64.38 27.53 63.56 26.71 63.56 25.7C63.56 24.69 64.38 23.87 65.39 23.87ZM65.39 27.57C66.4 27.57 67.22 28.39 67.22 29.4C67.22 30.41 66.4 31.23 65.39 31.23C64.38 31.23 63.56 30.41 63.56 29.4C63.56 28.39 64.38 27.57 65.39 27.57ZM69.1 27.57C70.11 27.57 70.93 28.39 70.93 29.4C70.93 30.41 70.11 31.23 69.1 31.23C68.09 31.23 67.27 30.41 67.27 29.4C67.27 28.39 68.09 27.57 69.1 27.57ZM65.39 31.28C66.4 31.28 67.22 32.1 67.22 33.11C67.22 34.12 66.4 34.94 65.39 34.94C64.38 34.94 63.56 34.12 63.56 33.11C63.56 32.1 64.38 31.28 65.39 31.28ZM69.1 31.28C70.11 31.28 70.93 32.1 70.93 33.11C70.93 34.12 70.11 34.94 69.1 34.94C68.09 34.94 67.27 34.12 67.27 33.11C67.27 32.1 68.09 31.28 69.1 31.28ZM91.33 31.28C92.34 31.28 93.16 32.1 93.16 33.11C93.16 34.12 92.34 34.94 91.33 34.94C90.32 34.94 89.5 34.12 89.5 33.11C89.5 32.1 90.32 31.28 91.33 31.28ZM72.8 34.99C73.81 34.99 74.63 35.81 74.63 36.82C74.63 37.83 73.81 38.65 72.8 38.65C71.79 38.65 70.97 37.83 70.97 36.82C70.97 35.81 71.79 34.99 72.8 34.99ZM50.57 57.22C51.58 57.22 52.4 58.04 52.4 59.05C52.4 60.06 51.58 60.88 50.57 60.88C49.56 60.88 48.74 60.06 48.74 59.05C48.74 58.04 49.56 57.22 50.57 57.22ZM76.51 64.63C77.52 64.63 78.34 65.45 78.34 66.46C78.34 67.47 77.52 68.29 76.51 68.29C75.5 68.29 74.68 67.47 74.68 66.46C74.68 65.45 75.5 64.63 76.51 64.63ZM80.21 64.63C81.22 64.63 82.04 65.45 82.04 66.46C82.04 67.47 81.22 68.29 80.21 68.29C79.2 68.29 78.38 67.47 78.38 66.46C78.38 65.45 79.2 64.63 80.21 64.63ZM83.92 64.63C84.93 64.63 85.75 65.45 85.75 66.46C85.75 67.47 84.93 68.29 83.92 68.29C82.91 68.29 82.09 67.47 82.09 66.46C82.09 65.45 82.91 64.63 83.92 64.63ZM87.63 64.63C88.64 64.63 89.46 65.45 89.46 66.46C89.46 67.47 88.64 68.29 87.63 68.29C86.62 68.29 85.8 67.47 85.8 66.46C85.8 65.45 86.62 64.63 87.63 64.63ZM91.33 64.63C92.34 64.63 93.16 65.45 93.16 66.46C93.16 67.47 92.34 68.29 91.33 68.29C90.32 68.29 89.5 67.47 89.5 66.46C89.5 65.45 90.32 64.63 91.33 64.63ZM76.51 68.33C77.52 68.33 78.34 69.15 78.34 70.16C78.34 71.17 77.52 71.99 76.51 71.99C75.5 71.99 74.68 71.17 74.68 70.16C74.68 69.15 75.5 68.33 76.51 68.33ZM80.21 68.33C81.22 68.33 82.04 69.15 82.04 70.16C82.04 71.17 81.22 71.99 80.21 71.99C79.2 71.99 78.38 71.17 78.38 70.16C78.38 69.15 79.2 68.33 80.21 68.33ZM83.92 68.33C84.93 68.33 85.75 69.15 85.75 70.16C85.75 71.17 84.93 71.99 83.92 71.99C82.91 71.99 82.09 71.17 82.09 70.16C82.09 69.15 82.91 68.33 83.92 68.33ZM87.63 68.33C88.64 68.33 89.46 69.15 89.46 70.16C89.46 71.17 88.64 71.99 87.63 71.99C86.62 71.99 85.8 71.17 85.8 70.16C85.8 69.15 86.62 68.33 87.63 68.33ZM91.33 68.33C92.34 68.33 93.16 69.15 93.16 70.16C93.16 71.17 92.34 71.99 91.33 71.99C90.32 71.99 89.5 71.17 89.5 70.16C89.5 69.15 90.32 68.33 91.33 68.33ZM76.51 72.04C77.52 72.04 78.34 72.86 78.34 73.87C78.34 74.88 77.52 75.7 76.51 75.7C75.5 75.7 74.68 74.88 74.68 73.87C74.68 72.86 75.5 72.04 76.51 72.04ZM80.21 72.04C81.22 72.04 82.04 72.86 82.04 73.87C82.04 74.88 81.22 75.7 80.21 75.7C79.2 75.7 78.38 74.88 78.38 73.87C78.38 72.86 79.2 72.04 80.21 72.04ZM83.92 72.04C84.93 72.04 85.75 72.86 85.75 73.87C85.75 74.88 84.93 75.7 83.92 75.7C82.91 75.7 82.09 74.88 82.09 73.87C82.09 72.86 82.91 72.04 83.92 72.04ZM87.63 72.04C88.64 72.04 89.46 72.86 89.46 73.87C89.46 74.88 88.64 75.7 87.63 75.7C86.62 75.7 85.8 74.88 85.8 73.87C85.8 72.86 86.62 72.04 87.63 72.04ZM91.33 72.04C92.34 72.04 93.16 72.86 93.16 73.87C93.16 74.88 92.34 75.7 91.33 75.7C90.32 75.7 89.5 74.88 89.5 73.87C89.5 72.86 90.32 72.04 91.33 72.04ZM61.69 75.74C62.7 75.74 63.52 76.56 63.52 77.57C63.52 78.58 62.7 79.4 61.69 79.4C60.68 79.4 59.86 78.58 59.86 77.57C59.86 76.56 60.68 75.74 61.69 75.74ZM65.39 75.74C66.4 75.74 67.22 76.56 67.22 77.57C67.22 78.58 66.4 79.4 65.39 79.4C64.38 79.4 63.56 78.58 63.56 77.57C63.56 76.56 64.38 75.74 65.39 75.74ZM69.1 75.74C70.11 75.74 70.93 76.56 70.93 77.57C70.93 78.58 70.11 79.4 69.1 79.4C68.09 79.4 67.27 78.58 67.27 77.57C67.27 76.56 68.09 75.74 69.1 75.74ZM72.8 75.74C73.81 75.74 74.63 76.56 74.63 77.57C74.63 78.58 73.81 79.4 72.8 79.4C71.79 79.4 70.97 78.58 70.97 77.57C70.97 76.56 71.79 75.74 72.8 75.74ZM76.51 75.74C77.52 75.74 78.34 76.56 78.34 77.57C78.34 78.58 77.52 79.4 76.51 79.4C75.5 79.4 74.68 78.58 74.68 77.57C74.68 76.56 75.5 75.74 76.51 75.74ZM80.21 75.74C81.22 75.74 82.04 76.56 82.04 77.57C82.04 78.58 81.22 79.4 80.21 79.4C79.2 79.4 78.38 78.58 78.38 77.57C78.38 76.56 79.2 75.74 80.21 75.74ZM83.92 75.74C84.93 75.74 85.75 76.56 85.75 77.57C85.75 78.58 84.93 79.4 83.92 79.4C82.91 79.4 82.09 78.58 82.09 77.57C82.09 76.56 82.91 75.74 83.92 75.74ZM87.63 75.74C88.64 75.74 89.46 76.56 89.46 77.57C89.46 78.58 88.64 79.4 87.63 79.4C86.62 79.4 85.8 78.58 85.8 77.57C85.8 76.56 86.62 75.74 87.63 75.74ZM91.33 75.74C92.34 75.74 93.16 76.56 93.16 77.57C93.16 78.58 92.34 79.4 91.33 79.4C90.32 79.4 89.5 78.58 89.5 77.57C89.5 76.56 90.32 75.74 91.33 75.74ZM95.04 75.74C96.05 75.74 96.87 76.56 96.87 77.57C96.87 78.58 96.05 79.4 95.04 79.4C94.03 79.4 93.21 78.58 93.21 77.57C93.21 76.56 94.03 75.74 95.04 75.74ZM61.69 79.45C62.7 79.45 63.52 80.27 63.52 81.28C63.52 82.29 62.7 83.11 61.69 83.11C60.68 83.11 59.86 82.29 59.86 81.28C59.86 80.27 60.68 79.45 61.69 79.45ZM65.39 79.45C66.4 79.45 67.22 80.27 67.22 81.28C67.22 82.29 66.4 83.11 65.39 83.11C64.38 83.11 63.56 82.29 63.56 81.28C63.56 80.27 64.38 79.45 65.39 79.45ZM69.1 79.45C70.11 79.45 70.93 80.27 70.93 81.28C70.93 82.29 70.11 83.11 69.1 83.11C68.09 83.11 67.27 82.29 67.27 81.28C67.27 80.27 68.09 79.45 69.1 79.45ZM72.8 79.45C73.81 79.45 74.63 80.27 74.63 81.28C74.63 82.29 73.81 83.11 72.8 83.11C71.79 83.11 70.97 82.29 70.97 81.28C70.97 80.27 71.79 79.45 72.8 79.45ZM76.51 79.45C77.52 79.45 78.34 80.27 78.34 81.28C78.34 82.29 77.52 83.11 76.51 83.11C75.5 83.11 74.68 82.29 74.68 81.28C74.68 80.27 75.5 79.45 76.51 79.45ZM80.21 79.45C81.22 79.45 82.04 80.27 82.04 81.28C82.04 82.29 81.22 83.11 80.21 83.11C79.2 83.11 78.38 82.29 78.38 81.28C78.38 80.27 79.2 79.45 80.21 79.45ZM83.92 79.45C84.93 79.45 85.75 80.27 85.75 81.28C85.75 82.29 84.93 83.11 83.92 83.11C82.91 83.11 82.09 82.29 82.09 81.28C82.09 80.27 82.91 79.45 83.92 79.45ZM87.63 79.45C88.64 79.45 89.46 80.27 89.46 81.28C89.46 82.29 88.64 83.11 87.63 83.11C86.62 83.11 85.8 82.29 85.8 81.28C85.8 80.27 86.62 79.45 87.63 79.45ZM91.33 79.45C92.34 79.45 93.16 80.27 93.16 81.28C93.16 82.29 92.34 83.11 91.33 83.11C90.32 83.11 89.5 82.29 89.5 81.28C89.5 80.27 90.32 79.45 91.33 79.45ZM57.98 83.15C58.99 83.15 59.81 83.97 59.81 84.98C59.81 85.99 58.99 86.81 57.98 86.81C56.97 86.81 56.15 85.99 56.15 84.98C56.15 83.97 56.97 83.15 57.98 83.15ZM61.69 83.15C62.7 83.15 63.52 83.97 63.52 84.98C63.52 85.99 62.7 86.81 61.69 86.81C60.68 86.81 59.86 85.99 59.86 84.98C59.86 83.97 60.68 83.15 61.69 83.15ZM72.8 83.15C73.81 83.15 74.63 83.97 74.63 84.98C74.63 85.99 73.81 86.81 72.8 86.81C71.79 86.81 70.97 85.99 70.97 84.98C70.97 83.97 71.79 83.15 72.8 83.15ZM76.51 83.15C77.52 83.15 78.34 83.97 78.34 84.98C78.34 85.99 77.52 86.81 76.51 86.81C75.5 86.81 74.68 85.99 74.68 84.98C74.68 83.97 75.5 83.15 76.51 83.15ZM80.21 83.15C81.22 83.15 82.04 83.97 82.04 84.98C82.04 85.99 81.22 86.81 80.21 86.81C79.2 86.81 78.38 85.99 78.38 84.98C78.38 83.97 79.2 83.15 80.21 83.15ZM83.92 83.15C84.93 83.15 85.75 83.97 85.75 84.98C85.75 85.99 84.93 86.81 83.92 86.81C82.91 86.81 82.09 85.99 82.09 84.98C82.09 83.97 82.91 83.15 83.92 83.15ZM87.63 83.15C88.64 83.15 89.46 83.97 89.46 84.98C89.46 85.99 88.64 86.81 87.63 86.81C86.62 86.81 85.8 85.99 85.8 84.98C85.8 83.97 86.62 83.15 87.63 83.15ZM57.98 86.86C58.99 86.86 59.81 87.68 59.81 88.69C59.81 89.7 58.99 90.52 57.98 90.52C56.97 90.52 56.15 89.7 56.15 88.69C56.15 87.68 56.97 86.86 57.98 86.86ZM61.69 86.86C62.7 86.86 63.52 87.68 63.52 88.69C63.52 89.7 62.7 90.52 61.69 90.52C60.68 90.52 59.86 89.7 59.86 88.69C59.86 87.68 60.68 86.86 61.69 86.86ZM65.39 86.86C66.4 86.86 67.22 87.68 67.22 88.69C67.22 89.7 66.4 90.52 65.39 90.52C64.38 90.52 63.56 89.7 63.56 88.69C63.56 87.68 64.38 86.86 65.39 86.86ZM69.1 86.86C70.11 86.86 70.93 87.68 70.93 88.69C70.93 89.7 70.11 90.52 69.1 90.52C68.09 90.52 67.27 89.7 67.27 88.69C67.27 87.68 68.09 86.86 69.1 86.86ZM72.8 86.86C73.81 86.86 74.63 87.68 74.63 88.69C74.63 89.7 73.81 90.52 72.8 90.52C71.79 90.52 70.97 89.7 70.97 88.69C70.97 87.68 71.79 86.86 72.8 86.86ZM76.51 86.86C77.52 86.86 78.34 87.68 78.34 88.69C78.34 89.7 77.52 90.52 76.51 90.52C75.5 90.52 74.68 89.7 74.68 88.69C74.68 87.68 75.5 86.86 76.51 86.86ZM80.21 86.86C81.22 86.86 82.04 87.68 82.04 88.69C82.04 89.7 81.22 90.52 80.21 90.52C79.2 90.52 78.38 89.7 78.38 88.69C78.38 87.68 79.2 86.86 80.21 86.86ZM83.92 86.86C84.93 86.86 85.75 87.68 85.75 88.69C85.75 89.7 84.93 90.52 83.92 90.52C82.91 90.52 82.09 89.7 82.09 88.69C82.09 87.68 82.91 86.86 83.92 86.86ZM87.63 86.86C88.64 86.86 89.46 87.68 89.46 88.69C89.46 89.7 88.64 90.52 87.63 90.52C86.62 90.52 85.8 89.7 85.8 88.69C85.8 87.68 86.62 86.86 87.63 86.86ZM61.69 90.57C62.7 90.57 63.52 91.39 63.52 92.4C63.52 93.41 62.7 94.23 61.69 94.23C60.68 94.23 59.86 93.41 59.86 92.4C59.86 91.39 60.68 90.57 61.69 90.57ZM65.39 90.57C66.4 90.57 67.22 91.39 67.22 92.4C67.22 93.41 66.4 94.23 65.39 94.23C64.38 94.23 63.56 93.41 63.56 92.4C63.56 91.39 64.38 90.57 65.39 90.57ZM69.1 90.57C70.11 90.57 70.93 91.39 70.93 92.4C70.93 93.41 70.11 94.23 69.1 94.23C68.09 94.23 67.27 93.41 67.27 92.4C67.27 91.39 68.09 90.57 69.1 90.57ZM72.8 90.57C73.81 90.57 74.63 91.39 74.63 92.4C74.63 93.41 73.81 94.23 72.8 94.23C71.79 94.23 70.97 93.41 70.97 92.4C70.97 91.39 71.79 90.57 72.8 90.57ZM76.51 90.57C77.52 90.57 78.34 91.39 78.34 92.4C78.34 93.41 77.52 94.23 76.51 94.23C75.5 94.23 74.68 93.41 74.68 92.4C74.68 91.39 75.5 90.57 76.51 90.57ZM80.21 90.57C81.22 90.57 82.04 91.39 82.04 92.4C82.04 93.41 81.22 94.23 80.21 94.23C79.2 94.23 78.38 93.41 78.38 92.4C78.38 91.39 79.2 90.57 80.21 90.57ZM83.92 90.57C84.93 90.57 85.75 91.39 85.75 92.4C85.75 93.41 84.93 94.23 83.92 94.23C82.91 94.23 82.09 93.41 82.09 92.4C82.09 91.39 82.91 90.57 83.92 90.57ZM87.63 90.57C88.64 90.57 89.46 91.39 89.46 92.4C89.46 93.41 88.64 94.23 87.63 94.23C86.62 94.23 85.8 93.41 85.8 92.4C85.8 91.39 86.62 90.57 87.63 90.57ZM65.39 94.27C66.4 94.27 67.22 95.09 67.22 96.1C67.22 97.11 66.4 97.93 65.39 97.93C64.38 97.93 63.56 97.11 63.56 96.1C63.56 95.09 64.38 94.27 65.39 94.27ZM69.1 94.27C70.11 94.27 70.93 95.09 70.93 96.1C70.93 97.11 70.11 97.93 69.1 97.93C68.09 97.93 67.27 97.11 67.27 96.1C67.27 95.09 68.09 94.27 69.1 94.27ZM72.8 94.27C73.81 94.27 74.63 95.09 74.63 96.1C74.63 97.11 73.81 97.93 72.8 97.93C71.79 97.93 70.97 97.11 70.97 96.1C70.97 95.09 71.79 94.27 72.8 94.27ZM76.51 94.27C77.52 94.27 78.34 95.09 78.34 96.1C78.34 97.11 77.52 97.93 76.51 97.93C75.5 97.93 74.68 97.11 74.68 96.1C74.68 95.09 75.5 94.27 76.51 94.27ZM80.21 94.27C81.22 94.27 82.04 95.09 82.04 96.1C82.04 97.11 81.22 97.93 80.21 97.93C79.2 97.93 78.38 97.11 78.38 96.1C78.38 95.09 79.2 94.27 80.21 94.27ZM83.92 94.27C84.93 94.27 85.75 95.09 85.75 96.1C85.75 97.11 84.93 97.93 83.92 97.93C82.91 97.93 82.09 97.11 82.09 96.1C82.09 95.09 82.91 94.27 83.92 94.27ZM69.1 97.98C70.11 97.98 70.93 98.8 70.93 99.81C70.93 100.82 70.11 101.64 69.1 101.64C68.09 101.64 67.27 100.82 67.27 99.81C67.27 98.8 68.09 97.98 69.1 97.98ZM83.92 97.98C84.93 97.98 85.75 98.8 85.75 99.81C85.75 100.82 84.93 101.64 83.92 101.64C82.91 101.64 82.09 100.82 82.09 99.81C82.09 98.8 82.91 97.98 83.92 97.98Z"/>
<path fill="#A05B5A" d="M41.89 20.73H44.42V23.27H41.89V20.73ZM30.78 24.43H33.32V26.96H30.78V24.43ZM34.48 24.43H37.01V26.96H34.48V24.43ZM38.19 24.43H40.72V26.96H38.19V24.43ZM41.89 24.43H44.42V26.96H41.89V24.43ZM45.6 24.43H48.13V26.96H45.6V24.43ZM30.78 28.14H33.32V30.67H30.78V28.14ZM34.48 28.14H37.01V30.67H34.48V28.14ZM38.19 28.14H40.72V30.67H38.19V28.14ZM41.89 28.14H44.42V30.67H41.89V28.14ZM45.6 28.14H48.13V30.67H45.6V28.14ZM49.3 28.14H51.83V30.67H49.3V28.14ZM53.01 28.14H55.55V30.67H53.01V28.14ZM56.71 28.14H59.25V30.67H56.71V28.14ZM60.42 28.14H62.96V30.67H60.42V28.14ZM19.66 31.84H22.19V34.37H19.66V31.84ZM23.37 31.84H25.91V34.37H23.37V31.84ZM27.07 31.84H29.61V34.37H27.07V31.84ZM30.78 31.84H33.32V34.37H30.78V31.84ZM34.48 31.84H37.01V34.37H34.48V31.84ZM38.19 31.84H40.72V34.37H38.19V31.84ZM41.89 31.84H44.42V34.37H41.89V31.84ZM60.42 31.84H62.96V34.37H60.42V31.84ZM19.66 35.55H22.19V38.08H19.66V35.55ZM23.37 35.55H25.91V38.08H23.37V35.55ZM27.07 35.55H29.61V38.08H27.07V35.55ZM30.78 35.55H33.32V38.08H30.78V35.55ZM34.48 35.55H37.01V38.08H34.48V35.55ZM38.19 35.55H40.72V38.08H38.19V35.55ZM41.89 35.55H44.42V38.08H41.89V35.55ZM45.6 35.55H48.13V38.08H45.6V35.55ZM49.3 35.55H51.83V38.08H49.3V35.55ZM56.71 35.55H59.25V38.08H56.71V35.55ZM60.42 35.55H62.96V38.08H60.42V35.55ZM64.13 35.55H66.66V38.08H64.13V35.55ZM67.83 35.55H70.36V38.08H67.83V35.55ZM12.25 39.25H14.78V41.78H12.25V39.25ZM15.96 39.25H18.49V41.78H15.96V39.25ZM19.66 39.25H22.19V41.78H19.66V39.25ZM23.37 39.25H25.91V41.78H23.37V39.25ZM27.07 39.25H29.61V41.78H27.07V39.25ZM30.78 39.25H33.32V41.78H30.78V39.25ZM34.48 39.25H37.01V41.78H34.48V39.25ZM38.19 39.25H40.72V41.78H38.19V39.25ZM41.89 39.25H44.42V41.78H41.89V39.25ZM45.6 39.25H48.13V41.78H45.6V39.25ZM49.3 39.25H51.83V41.78H49.3V39.25ZM53.01 39.25H55.55V41.78H53.01V39.25ZM56.71 39.25H59.25V41.78H56.71V39.25ZM60.42 39.25H62.96V41.78H60.42V39.25ZM67.83 39.25H70.36V41.78H67.83V39.25ZM71.54 39.25H74.07V41.78H71.54V39.25ZM8.55 42.96H11.08V45.5H8.55V42.96ZM12.25 42.96H14.78V45.5H12.25V42.96ZM15.96 42.96H18.49V45.5H15.96V42.96ZM19.66 42.96H22.19V45.5H19.66V42.96ZM23.37 42.96H25.91V45.5H23.37V42.96ZM27.07 42.96H29.61V45.5H27.07V42.96ZM30.78 42.96H33.32V45.5H30.78V42.96ZM34.48 42.96H37.01V45.5H34.48V42.96ZM38.19 42.96H40.72V45.5H38.19V42.96ZM41.89 42.96H44.42V45.5H41.89V42.96ZM45.6 42.96H48.13V45.5H45.6V42.96ZM49.3 42.96H51.83V45.5H49.3V42.96ZM53.01 42.96H55.55V45.5H53.01V42.96ZM56.71 42.96H59.25V45.5H56.71V42.96ZM60.42 42.96H62.96V45.5H60.42V42.96ZM64.13 42.96H66.66V45.5H64.13V42.96ZM67.83 42.96H70.36V45.5H67.83V42.96ZM71.54 42.96H74.07V45.5H71.54V42.96ZM75.24 42.96H77.77V45.5H75.24V42.96ZM4.84 46.66H7.37V49.2H4.84V46.66ZM8.55 46.66H11.08V49.2H8.55V46.66ZM12.25 46.66H14.78V49.2H12.25V46.66ZM15.96 46.66H18.49V49.2H15.96V46.66ZM19.66 46.66H22.19V49.2H19.66V46.66ZM23.37 46.66H25.91V49.2H23.37V46.66ZM27.07 46.66H29.61V49.2H27.07V46.66ZM30.78 46.66H33.32V49.2H30.78V46.66ZM34.48 46.66H37.01V49.2H34.48V46.66ZM38.19 46.66H40.72V49.2H38.19V46.66ZM41.89 46.66H44.42V49.2H41.89V46.66ZM45.6 46.66H48.13V49.2H45.6V46.66ZM49.3 46.66H51.83V49.2H49.3V46.66ZM53.01 46.66H55.55V49.2H53.01V46.66ZM56.71 46.66H59.25V49.2H56.71V46.66ZM60.42 46.66H62.96V49.2H60.42V46.66ZM64.13 46.66H66.66V49.2H64.13V46.66ZM67.83 46.66H70.36V49.2H67.83V46.66ZM71.54 46.66H74.07V49.2H71.54V46.66ZM75.24 46.66H77.77V49.2H75.24V46.66ZM78.95 46.66H81.48V49.2H78.95V46.66ZM4.84 50.37H7.37V52.91H4.84V50.37ZM12.25 50.37H14.78V52.91H12.25V50.37ZM15.96 50.37H18.49V52.91H15.96V50.37ZM19.66 50.37H22.19V52.91H19.66V50.37ZM23.37 50.37H25.91V52.91H23.37V50.37ZM27.07 50.37H29.61V52.91H27.07V50.37ZM30.78 50.37H33.32V52.91H30.78V50.37ZM34.48 50.37H37.01V52.91H34.48V50.37ZM38.19 50.37H40.72V52.91H38.19V50.37ZM41.89 50.37H44.42V52.91H41.89V50.37ZM45.6 50.37H48.13V52.91H45.6V50.37ZM49.3 50.37H51.83V52.91H49.3V50.37ZM53.01 50.37H55.55V52.91H53.01V50.37ZM56.71 50.37H59.25V52.91H56.71V50.37ZM60.42 50.37H62.96V52.91H60.42V50.37ZM64.13 50.37H66.66V52.91H64.13V50.37ZM67.83 50.37H70.36V52.91H67.83V50.37ZM71.54 50.37H74.07V52.91H71.54V50.37ZM75.24 50.37H77.77V52.91H75.24V50.37ZM78.95 50.37H81.48V52.91H78.95V50.37ZM8.55 54.08H11.08V56.61H8.55V54.08ZM12.25 54.08H14.78V56.61H12.25V54.08ZM15.96 54.08H18.49V56.61H15.96V54.08ZM19.66 54.08H22.19V56.61H19.66V54.08ZM23.37 54.08H25.91V56.61H23.37V54.08ZM27.07 54.08H29.61V56.61H27.07V54.08ZM30.78 54.08H33.32V56.61H30.78V54.08ZM34.48 54.08H37.01V56.61H34.48V54.08ZM38.19 54.08H40.72V56.61H38.19V54.08ZM41.89 54.08H44.42V56.61H41.89V54.08ZM45.6 54.08H48.13V56.61H45.6V54.08ZM49.3 54.08H51.83V56.61H49.3V54.08ZM53.01 54.08H55.55V56.61H53.01V54.08ZM56.71 54.08H59.25V56.61H56.71V54.08ZM60.42 54.08H62.96V56.61H60.42V54.08ZM64.13 54.08H66.66V56.61H64.13V54.08ZM67.83 54.08H70.36V56.61H67.83V54.08ZM71.54 54.08H74.07V56.61H71.54V54.08ZM75.24 54.08H77.77V56.61H75.24V54.08ZM78.95 54.08H81.48V56.61H78.95V54.08ZM82.65 54.08H85.19V56.61H82.65V54.08ZM4.84 57.78H7.37V60.31H4.84V57.78ZM8.55 57.78H11.08V60.31H8.55V57.78ZM12.25 57.78H14.78V60.31H12.25V57.78ZM15.96 57.78H18.49V60.31H15.96V57.78ZM19.66 57.78H22.19V60.31H19.66V57.78ZM23.37 57.78H25.91V60.31H23.37V57.78ZM27.07 57.78H29.61V60.31H27.07V57.78ZM30.78 57.78H33.32V60.31H30.78V57.78ZM38.19 57.78H40.72V60.31H38.19V57.78ZM41.89 57.78H44.42V60.31H41.89V57.78ZM45.6 57.78H48.13V60.31H45.6V57.78ZM53.01 57.78H55.55V60.31H53.01V57.78ZM56.71 57.78H59.25V60.31H56.71V57.78ZM60.42 57.78H62.96V60.31H60.42V57.78ZM64.13 57.78H66.66V60.31H64.13V57.78ZM67.83 57.78H70.36V60.31H67.83V57.78ZM71.54 57.78H74.07V60.31H71.54V57.78ZM75.24 57.78H77.77V60.31H75.24V57.78ZM78.95 57.78H81.48V60.31H78.95V57.78ZM82.65 57.78H85.19V60.31H82.65V57.78ZM86.36 57.78H88.9V60.31H86.36V57.78ZM90.06 57.78H92.6V60.31H90.06V57.78ZM1.13 61.49H3.67V64.02H1.13V61.49ZM4.84 61.49H7.37V64.02H4.84V61.49ZM8.55 61.49H11.08V64.02H8.55V61.49ZM12.25 61.49H14.78V64.02H12.25V61.49ZM15.96 61.49H18.49V64.02H15.96V61.49ZM19.66 61.49H22.19V64.02H19.66V61.49ZM23.37 61.49H25.91V64.02H23.37V61.49ZM27.07 61.49H29.61V64.02H27.07V61.49ZM30.78 61.49H33.32V64.02H30.78V61.49ZM34.48 61.49H37.01V64.02H34.48V61.49ZM38.19 61.49H40.72V64.02H38.19V61.49ZM41.89 61.49H44.42V64.02H41.89V61.49ZM45.6 61.49H48.13V64.02H45.6V61.49ZM49.3 61.49H51.83V64.02H49.3V61.49ZM53.01 61.49H55.55V64.02H53.01V61.49ZM56.71 61.49H59.25V64.02H56.71V61.49ZM60.42 61.49H62.96V64.02H60.42V61.49ZM64.13 61.49H66.66V64.02H64.13V61.49ZM71.54 61.49H74.07V64.02H71.54V61.49ZM78.95 61.49H81.48V64.02H78.95V61.49ZM86.36 61.49H88.9V64.02H86.36V61.49ZM8.55 65.19H11.08V67.72H8.55V65.19ZM12.25 65.19H14.78V67.72H12.25V65.19ZM15.96 65.19H18.49V67.72H15.96V65.19ZM19.66 65.19H22.19V67.72H19.66V65.19ZM23.37 65.19H25.91V67.72H23.37V65.19ZM27.07 65.19H29.61V67.72H27.07V65.19ZM30.78 65.19H33.32V67.72H30.78V65.19ZM34.48 65.19H37.01V67.72H34.48V65.19ZM38.19 65.19H40.72V67.72H38.19V65.19ZM41.89 65.19H44.42V67.72H41.89V65.19ZM45.6 65.19H48.13V67.72H45.6V65.19ZM49.3 65.19H51.83V67.72H49.3V65.19ZM53.01 65.19H55.55V67.72H53.01V65.19ZM56.71 65.19H59.25V67.72H56.71V65.19ZM60.42 65.19H62.96V67.72H60.42V65.19ZM64.13 65.19H66.66V67.72H64.13V65.19ZM71.54 65.19H74.07V67.72H71.54V65.19ZM4.84 68.9H7.37V71.43H4.84V68.9ZM8.55 68.9H11.08V71.43H8.55V68.9ZM12.25 68.9H14.78V71.43H12.25V68.9ZM15.96 68.9H18.49V71.43H15.96V68.9ZM19.66 68.9H22.19V71.43H19.66V68.9ZM23.37 68.9H25.91V71.43H23.37V68.9ZM27.07 68.9H29.61V71.43H27.07V68.9ZM30.78 68.9H33.32V71.43H30.78V68.9ZM34.48 68.9H37.01V71.43H34.48V68.9ZM38.19 68.9H40.72V71.43H38.19V68.9ZM41.89 68.9H44.42V71.43H41.89V68.9ZM45.6 68.9H48.13V71.43H45.6V68.9ZM49.3 68.9H51.83V71.43H49.3V68.9ZM53.01 68.9H55.55V71.43H53.01V68.9ZM56.71 68.9H59.25V71.43H56.71V68.9ZM60.42 68.9H62.96V71.43H60.42V68.9ZM4.84 72.6H7.37V75.14H4.84V72.6ZM8.55 72.6H11.08V75.14H8.55V72.6ZM12.25 72.6H14.78V75.14H12.25V72.6ZM15.96 72.6H18.49V75.14H15.96V72.6ZM19.66 72.6H22.19V75.14H19.66V72.6ZM23.37 72.6H25.91V75.14H23.37V72.6ZM27.07 72.6H29.61V75.14H27.07V72.6ZM34.48 72.6H37.01V75.14H34.48V72.6ZM38.19 72.6H40.72V75.14H38.19V72.6ZM41.89 72.6H44.42V75.14H41.89V72.6ZM45.6 72.6H48.13V75.14H45.6V72.6ZM49.3 72.6H51.83V75.14H49.3V72.6ZM53.01 72.6H55.55V75.14H53.01V72.6ZM56.71 72.6H59.25V75.14H56.71V72.6ZM60.42 72.6H62.96V75.14H60.42V72.6ZM71.54 72.6H74.07V75.14H71.54V72.6ZM4.84 76.31H7.37V78.85H4.84V76.31ZM8.55 76.31H11.08V78.85H8.55V76.31ZM12.25 76.31H14.78V78.85H12.25V76.31ZM15.96 76.31H18.49V78.85H15.96V76.31ZM19.66 76.31H22.19V78.85H19.66V76.31ZM23.37 76.31H25.91V78.85H23.37V76.31ZM27.07 76.31H29.61V78.85H27.07V76.31ZM30.78 76.31H33.32V78.85H30.78V76.31ZM34.48 76.31H37.01V78.85H34.48V76.31ZM38.19 76.31H40.72V78.85H38.19V76.31ZM41.89 76.31H44.42V78.85H41.89V76.31ZM49.3 76.31H51.83V78.85H49.3V76.31ZM53.01 76.31H55.55V78.85H53.01V76.31ZM56.71 76.31H59.25V78.85H56.71V76.31ZM4.84 80.01H7.37V82.55H4.84V80.01ZM8.55 80.01H11.08V82.55H8.55V80.01ZM12.25 80.01H14.78V82.55H12.25V80.01ZM15.96 80.01H18.49V82.55H15.96V80.01ZM19.66 80.01H22.19V82.55H19.66V80.01ZM23.37 80.01H25.91V82.55H23.37V80.01ZM27.07 80.01H29.61V82.55H27.07V80.01ZM30.78 80.01H33.32V82.55H30.78V80.01ZM34.48 80.01H37.01V82.55H34.48V80.01ZM38.19 80.01H40.72V82.55H38.19V80.01ZM41.89 80.01H44.42V82.55H41.89V80.01ZM45.6 80.01H48.13V82.55H45.6V80.01ZM53.01 80.01H55.55V82.55H53.01V80.01ZM12.25 83.72H14.78V86.25H12.25V83.72ZM15.96 83.72H18.49V86.25H15.96V83.72ZM19.66 83.72H22.19V86.25H19.66V83.72ZM23.37 83.72H25.91V86.25H23.37V83.72ZM27.07 83.72H29.61V86.25H27.07V83.72ZM30.78 83.72H33.32V86.25H30.78V83.72ZM34.48 83.72H37.01V86.25H34.48V83.72ZM38.19 83.72H40.72V86.25H38.19V83.72ZM41.89 83.72H44.42V86.25H41.89V83.72ZM45.6 83.72H48.13V86.25H45.6V83.72ZM64.13 83.72H66.66V86.25H64.13V83.72ZM15.96 87.42H18.49V89.95H15.96V87.42ZM23.37 87.42H25.91V89.95H23.37V87.42ZM27.07 87.42H29.61V89.95H27.07V87.42ZM34.48 87.42H37.01V89.95H34.48V87.42ZM38.19 87.42H40.72V89.95H38.19V87.42ZM15.96 91.13H18.49V93.66H15.96V91.13ZM27.07 91.13H29.61V93.66H27.07V91.13ZM38.19 91.13H40.72V93.66H38.19V91.13Z"/>
</svg>
