<svg xmlns="http://www.w3.org/2000/svg" width="102.0" height="55.0" viewBox="0 0 102.0 55.0" fill="none">
<path fill="#E4DB17" d="M5.42 1.77C7.86 1.77 9.83 3.75 9.83 6.18C9.83 8.61 7.85 10.59 5.42 10.59C2.99 10.59 1 8.63 1 6.19C1 3.75 2.98 1.78 5.41 1.78L5.42 1.77ZM21.51 7.14C23.95 7.14 25.93 9.11 25.93 11.55C25.93 13.99 23.96 15.97 21.52 15.97C19.08 15.97 17.1 14 17.1 11.56C17.1 9.12 19.07 7.14 21.51 7.14ZM26.87 7.14C29.31 7.14 31.29 9.11 31.29 11.55C31.29 13.99 29.32 15.97 26.88 15.97C24.44 15.97 22.46 14 22.46 11.56C22.46 9.12 24.43 7.14 26.87 7.14ZM53.68 7.14C56.12 7.14 58.1 9.11 58.1 11.55C58.1 13.99 56.13 15.97 53.69 15.97C51.25 15.97 49.27 14 49.27 11.56C49.27 9.12 51.24 7.14 53.68 7.14ZM42.96 12.5C45.4 12.5 47.38 14.47 47.38 16.91C47.38 19.35 45.41 21.33 42.97 21.33C40.53 21.33 38.55 19.36 38.55 16.92C38.55 14.48 40.52 12.5 42.96 12.5ZM37.59 17.86C40.03 17.86 42.01 19.83 42.01 22.27C42.01 24.71 40.04 26.69 37.6 26.69C35.16 26.69 33.18 24.72 33.18 22.28C33.18 19.84 35.15 17.86 37.59 17.86ZM69.77 17.86C72.21 17.86 74.19 19.83 74.19 22.27C74.19 24.71 72.22 26.69 69.78 26.69C67.34 26.69 65.36 24.72 65.36 22.28C65.36 19.84 67.33 17.86 69.77 17.86ZM96.58 17.86C99.02 17.86 101 19.83 101 22.27C101 24.71 99.03 26.69 96.59 26.69C94.15 26.69 92.17 24.72 92.17 22.28C92.17 19.84 94.14 17.86 96.58 17.86ZM37.59 23.22C40.03 23.22 42.01 25.19 42.01 27.63C42.01 30.07 40.04 32.05 37.6 32.05C35.16 32.05 33.18 30.08 33.18 27.64C33.18 25.2 35.15 23.22 37.59 23.22ZM53.68 33.95C56.12 33.95 58.1 35.92 58.1 38.36C58.1 40.8 56.13 42.78 53.69 42.78C51.25 42.78 49.27 40.81 49.27 38.37C49.27 35.93 51.24 33.95 53.68 33.95ZM59.04 44.67C61.48 44.67 63.46 46.64 63.46 49.08C63.46 51.52 61.49 53.5 59.05 53.5C56.61 53.5 54.63 51.53 54.63 49.09C54.63 46.65 56.6 44.67 59.04 44.67ZM75.13 44.67C77.57 44.67 79.55 46.64 79.55 49.08C79.55 51.52 77.58 53.5 75.14 53.5C72.7 53.5 70.72 51.53 70.72 49.09C70.72 46.65 72.69 44.67 75.13 44.67Z"/>
<path fill="#A05B5A" d="M59.04 1.77L63.45 10.6H54.62L59.03 1.77H59.04ZM59.04 7.14L63.45 15.97H54.62L59.03 7.14H59.04ZM32.23 12.5L36.64 21.33H27.81L32.22 12.5H32.23ZM26.87 33.95L31.28 42.78H22.45L26.86 33.95H26.87Z"/>
<path fill="#4A6ADD" d="M10.78 1.77C13.22 1.77 15.19 3.75 15.19 6.18C15.19 8.61 13.21 10.59 10.78 10.59C8.35 10.59 6.37 8.61 6.37 6.18C6.37 3.75 8.35 1.77 10.78 1.77ZM37.59 1.77C40.03 1.77 42 3.75 42 6.18C42 8.61 40.02 10.59 37.59 10.59C35.16 10.59 33.18 8.61 33.18 6.18C33.18 3.75 35.16 1.77 37.59 1.77ZM64.41 1.77C66.85 1.77 68.82 3.75 68.82 6.18C68.82 8.61 66.84 10.59 64.41 10.59C61.98 10.59 60 8.61 60 6.18C60 3.75 61.98 1.77 64.41 1.77ZM85.86 1.77C88.3 1.77 90.27 3.75 90.27 6.18C90.27 8.61 88.29 10.59 85.86 10.59C83.43 10.59 81.45 8.61 81.45 6.18C81.45 3.75 83.43 1.77 85.86 1.77ZM91.22 1.77C93.66 1.77 95.63 3.75 95.63 6.18C95.63 8.61 93.65 10.59 91.22 10.59C88.79 10.59 86.81 8.61 86.81 6.18C86.81 3.75 88.79 1.77 91.22 1.77ZM37.59 7.14C40.03 7.14 42.01 9.11 42.01 11.55C42.01 13.99 40.04 15.97 37.6 15.97C35.16 15.97 33.18 14 33.18 11.56C33.18 9.12 35.15 7.14 37.59 7.14ZM42.96 7.14C45.4 7.14 47.38 9.11 47.38 11.55C47.38 13.99 45.41 15.97 42.97 15.97C40.53 15.97 38.55 14 38.55 11.56C38.55 9.12 40.52 7.14 42.96 7.14ZM75.13 7.14C77.57 7.14 79.55 9.11 79.55 11.55C79.55 13.99 77.58 15.97 75.14 15.97C72.7 15.97 70.72 14 70.72 11.56C70.72 9.12 72.69 7.14 75.13 7.14ZM5.42 17.86C7.86 17.86 9.84 19.83 9.84 22.27C9.84 24.71 7.87 26.69 5.43 26.69C2.99 26.69 1.01 24.72 1.01 22.28C1.01 19.84 2.98 17.86 5.42 17.86ZM21.51 17.86C23.95 17.86 25.93 19.83 25.93 22.27C25.93 24.71 23.96 26.69 21.52 26.69C19.08 26.69 17.1 24.72 17.1 22.28C17.1 19.84 19.07 17.86 21.51 17.86ZM32.23 17.86C34.67 17.86 36.65 19.83 36.65 22.27C36.65 24.71 34.68 26.69 32.24 26.69C29.8 26.69 27.82 24.72 27.82 22.28C27.82 19.84 29.79 17.86 32.23 17.86ZM48.32 17.86C50.76 17.86 52.74 19.83 52.74 22.27C52.74 24.71 50.77 26.69 48.33 26.69C45.89 26.69 43.91 24.72 43.91 22.28C43.91 19.84 45.88 17.86 48.32 17.86ZM53.68 17.86C56.12 17.86 58.1 19.83 58.1 22.27C58.1 24.71 56.13 26.69 53.69 26.69C51.25 26.69 49.27 24.72 49.27 22.28C49.27 19.84 51.24 17.86 53.68 17.86ZM64.41 17.86C66.85 17.86 68.83 19.83 68.83 22.27C68.83 24.71 66.86 26.69 64.42 26.69C61.98 26.69 60 24.72 60 22.28C60 19.84 61.97 17.86 64.41 17.86ZM75.13 17.86C77.57 17.86 79.55 19.83 79.55 22.27C79.55 24.71 77.58 26.69 75.14 26.69C72.7 26.69 70.72 24.72 70.72 22.28C70.72 19.84 72.69 17.86 75.13 17.86ZM91.22 17.86C93.66 17.86 95.64 19.83 95.64 22.27C95.64 24.71 93.67 26.69 91.23 26.69C88.79 26.69 86.81 24.72 86.81 22.28C86.81 19.84 88.78 17.86 91.22 17.86ZM26.87 23.22C29.31 23.22 31.29 25.19 31.29 27.63C31.29 30.07 29.32 32.05 26.88 32.05C24.44 32.05 22.46 30.08 22.46 27.64C22.46 25.2 24.43 23.22 26.87 23.22ZM59.04 23.22C61.48 23.22 63.46 25.19 63.46 27.63C63.46 30.07 61.49 32.05 59.05 32.05C56.61 32.05 54.63 30.08 54.63 27.64C54.63 25.2 56.6 23.22 59.04 23.22ZM69.77 23.22C72.21 23.22 74.19 25.19 74.19 27.63C74.19 30.07 72.22 32.05 69.78 32.05C67.34 32.05 65.36 30.08 65.36 27.64C65.36 25.2 67.33 23.22 69.77 23.22ZM42.96 28.58C45.4 28.58 47.38 30.55 47.38 32.99C47.38 35.43 45.41 37.41 42.97 37.41C40.53 37.41 38.55 35.44 38.55 33C38.55 30.56 40.52 28.58 42.96 28.58ZM69.77 33.95C72.21 33.95 74.19 35.92 74.19 38.36C74.19 40.8 72.22 42.78 69.78 42.78C67.34 42.78 65.36 40.81 65.36 38.37C65.36 35.93 67.33 33.95 69.77 33.95Z"/>
<path fill="#FFBCD5" d="M32.23 1.77L36.64 10.6H27.81L32.22 1.77H32.23ZM26.87 17.86L31.28 26.69H22.45L26.86 17.86H26.87ZM32.23 23.22L36.64 32.05H27.81L32.22 23.22H32.23ZM42.96 23.22L47.37 32.05H38.54L42.95 23.22H42.96ZM53.68 23.22L58.09 32.05H49.26L53.67 23.22H53.68ZM53.68 28.58L58.09 37.41H49.26L53.67 28.58H53.68ZM21.51 39.31L25.92 48.14H17.09L21.5 39.31H21.51ZM21.51 44.67L25.92 53.5H17.09L21.5 44.67H21.51ZM37.59 44.67L42 53.5H33.17L37.58 44.67H37.59Z"/>
<path fill="#FF6D39" d="M59.99 23.22H68.82V32.05H59.99V23.22Z"/>
</svg>
