<svg xmlns="http://www.w3.org/2000/svg" width="84.0" height="103.0" viewBox="0 0 84.0 103.0" fill="none">
<path fill="#FF6D39" d="M53.26 20.4L56.35 26.58H50.17L53.26 20.4ZM53.26 24.15L56.35 30.33H50.17L53.26 24.15ZM53.26 27.91L56.35 34.09H50.17L53.26 27.91ZM68.27 31.66L71.36 37.84H65.18L68.27 31.66ZM45.75 35.41L48.84 41.59H42.66L45.75 35.41ZM68.27 35.41L71.36 41.59H65.18L68.27 35.41ZM4.47 39.17L7.56 45.35H1.38L4.47 39.17ZM15.73 39.17L18.82 45.35H12.64L15.73 39.17ZM19.48 39.17L22.57 45.35H16.39L19.48 39.17ZM45.75 39.17L48.84 45.35H42.66L45.75 39.17ZM64.52 39.17L67.61 45.35H61.43L64.52 39.17ZM68.27 39.17L71.36 45.35H65.18L68.27 39.17ZM4.47 42.92L7.56 49.1H1.38L4.47 42.92ZM15.73 42.92L18.82 49.1H12.64L15.73 42.92ZM42 42.92L45.09 49.1H38.91L42 42.92ZM45.75 42.92L48.84 49.1H42.66L45.75 42.92ZM23.24 46.67L26.33 52.85H20.15L23.24 46.67ZM26.99 46.67L30.08 52.85H23.9L26.99 46.67ZM30.74 46.67L33.83 52.85H27.65L30.74 46.67ZM45.75 46.67L48.84 52.85H42.66L45.75 46.67ZM49.51 46.67L52.6 52.85H46.42L49.51 46.67ZM64.52 46.67L67.61 52.85H61.43L64.52 46.67ZM68.27 46.67L71.36 52.85H65.18L68.27 46.67ZM72.02 46.67L75.11 52.85H68.93L72.02 46.67ZM34.49 50.42L37.58 56.6H31.4L34.49 50.42ZM42 50.42L45.09 56.6H38.91L42 50.42ZM45.75 50.42L48.84 56.6H42.66L45.75 50.42ZM68.27 50.42L71.36 56.6H65.18L68.27 50.42ZM79.53 50.42L82.62 56.6H76.44L79.53 50.42ZM42 54.18L45.09 60.36H38.91L42 54.18ZM64.52 54.18L67.61 60.36H61.43L64.52 54.18ZM79.53 54.18L82.62 60.36H76.44L79.53 54.18ZM30.74 57.93L33.83 64.11H27.65L30.74 57.93ZM38.25 57.93L41.34 64.11H35.16L38.25 57.93ZM64.52 57.93L67.61 64.11H61.43L64.52 57.93ZM38.25 61.68L41.34 67.86H35.16L38.25 61.68ZM53.26 61.68L56.35 67.86H50.17L53.26 61.68ZM79.53 61.68L82.62 67.86H76.44L79.53 61.68ZM53.26 65.43L56.35 71.61H50.17L53.26 65.43ZM57.01 65.43L60.1 71.61H53.92L57.01 65.43ZM64.52 65.43L67.61 71.61H61.43L64.52 65.43ZM68.27 65.43L71.36 71.61H65.18L68.27 65.43ZM53.26 69.19L56.35 75.37H50.17L53.26 69.19ZM53.26 76.69L56.35 82.87H50.17L53.26 76.69ZM30.74 95.46L33.83 101.64H27.65L30.74 95.46ZM34.49 95.46L37.58 101.64H31.4L34.49 95.46Z"/>
<path fill="#21573D" d="M60.76 27.91C62.47 27.91 63.85 29.29 63.85 31C63.85 32.71 62.47 34.09 60.76 34.09C59.05 34.09 57.67 32.71 57.67 31C57.67 29.29 59.05 27.91 60.76 27.91ZM26.99 50.42C28.7 50.42 30.08 51.8 30.08 53.51C30.08 55.22 28.7 56.6 26.99 56.6C25.28 56.6 23.9 55.22 23.9 53.51C23.9 51.8 25.28 50.42 26.99 50.42ZM60.76 54.18C62.47 54.18 63.85 55.56 63.85 57.27C63.85 58.98 62.47 60.36 60.76 60.36C59.05 60.36 57.67 58.98 57.67 57.27C57.67 55.56 59.05 54.18 60.76 54.18ZM38.25 80.45C39.96 80.45 41.34 81.83 41.34 83.54C41.34 85.25 39.96 86.63 38.25 86.63C36.54 86.63 35.16 85.25 35.16 83.54C35.16 81.83 36.54 80.45 38.25 80.45ZM79.53 84.2C81.24 84.2 82.62 85.58 82.62 87.29C82.62 89 81.24 90.38 79.53 90.38C77.82 90.38 76.44 89 76.44 87.29C76.44 85.58 77.82 84.2 79.53 84.2Z"/>
<path fill="#E4DB17" d="M62.38 10.09H66.66V14.37H62.38V10.09ZM58.62 13.85H62.9V18.13H58.62V13.85ZM66.13 13.85H70.41V18.13H66.13V13.85ZM54.87 21.35H59.15V25.63H54.87V21.35ZM58.62 32.61H62.9V36.89H58.62V32.61ZM58.62 36.36H62.9V40.64H58.62V36.36ZM47.37 40.12H51.65V44.4H47.37V40.12ZM6.09 43.87H10.37V48.15H6.09V43.87ZM47.37 43.87H51.65V48.15H47.37V43.87ZM62.38 43.87H66.66V48.15H62.38V43.87ZM32.36 47.62H36.64V51.9H32.36V47.62ZM73.64 47.62H77.92V51.9H73.64V47.62ZM39.86 66.39H44.14V70.67H39.86V66.39ZM62.38 73.89H66.66V78.17H62.38V73.89ZM73.64 81.4H77.92V85.68H73.64V81.4ZM47.37 85.15H51.65V89.43H47.37V85.15Z"/>
<path fill="#4A6ADD" d="M61.43 5.39H67.61V11.57H61.43V5.39ZM57.67 9.14H63.85V15.32H57.67V9.14ZM53.92 12.9H60.1V19.08H53.92V12.9ZM50.17 16.65H56.35V22.83H50.17V16.65ZM53.92 16.65H60.1V22.83H53.92V16.65ZM46.42 24.15H52.6V30.33H46.42V24.15ZM42.66 27.91H48.84V34.09H42.66V27.91ZM46.42 27.91H52.6V34.09H46.42V27.91ZM61.43 27.91H67.61V34.09H61.43V27.91ZM68.93 42.92H75.11V49.1H68.93V42.92ZM72.69 50.42H78.87V56.6H72.69V50.42ZM46.42 54.18H52.6V60.36H46.42V54.18ZM50.17 54.18H56.35V60.36H50.17V54.18ZM72.69 54.18H78.87V60.36H72.69V54.18ZM38.91 61.68H45.09V67.86H38.91V61.68ZM42.66 61.68H48.84V67.86H42.66V61.68ZM46.42 61.68H52.6V67.86H46.42V61.68ZM35.16 76.69H41.34V82.87H35.16V76.69ZM46.42 76.69H52.6V82.87H46.42V76.69ZM68.93 76.69H75.11V82.87H68.93V76.69ZM42.66 80.45H48.84V86.63H42.66V80.45ZM46.42 80.45H52.6V86.63H46.42V80.45Z"/>
<path fill="#FFBCD5" d="M45.75 32.61C44.57 32.61 43.61 33.57 43.61 34.75C43.61 35.93 44.57 36.89 45.75 36.89C46.93 36.89 47.89 35.93 47.89 34.75C47.89 33.57 46.93 32.61 45.75 32.61Z"/>
<path fill="#FFBCD5" d="M68.27 17.6C67.09 17.6 66.13 18.56 66.13 19.74C66.13 20.92 67.09 21.88 68.27 21.88C69.45 21.88 70.41 20.92 70.41 19.74C70.41 18.56 69.45 17.6 68.27 17.6ZM45.75 85.15C44.57 85.15 43.61 86.11 43.61 87.29C43.61 88.47 44.57 89.43 45.75 89.43C46.93 89.43 47.89 88.47 47.89 87.29C47.89 86.11 46.93 85.15 45.75 85.15Z"/>
<path fill="#FFBCD5" d="M49.51 51.37C48.33 51.37 47.37 52.33 47.37 53.51C47.37 54.69 48.33 55.65 49.51 55.65C50.69 55.65 51.65 54.69 51.65 53.51C51.65 52.33 50.69 51.37 49.51 51.37Z"/>
<path fill="#FFBCD5" d="M49.51 36.36C48.33 36.36 47.37 37.32 47.37 38.5C47.37 39.68 48.33 40.64 49.51 40.64C50.69 40.64 51.65 39.68 51.65 38.5C51.65 37.32 50.69 36.36 49.51 36.36ZM60.76 58.88C59.58 58.88 58.62 59.84 58.62 61.02C58.62 62.2 59.58 63.16 60.76 63.16C61.94 63.16 62.9 62.2 62.9 61.02C62.9 59.84 61.94 58.88 60.76 58.88Z"/>
<path fill="#A05B5A" d="M72.02 1.64L75.11 7.82H68.93L72.02 1.64ZM64.52 31.66L67.61 37.84H61.43L64.52 31.66ZM64.52 35.41L67.61 41.59H61.43L64.52 35.41ZM30.74 42.92L33.83 49.1H27.65L30.74 42.92ZM72.02 50.42L75.11 56.6H68.93L72.02 50.42ZM45.75 54.18L48.84 60.36H42.66L45.75 54.18ZM42 57.93L45.09 64.11H38.91L42 57.93ZM53.26 57.93L56.35 64.11H50.17L53.26 57.93ZM79.53 57.93L82.62 64.11H76.44L79.53 57.93ZM38.25 69.19L41.34 75.37H35.16L38.25 69.19ZM72.02 84.2L75.11 90.38H68.93L72.02 84.2ZM75.78 84.2L78.87 90.38H72.69L75.78 84.2Z"/>
</svg>
